<svg fill="none" height="200" width="200" xmlns="http://www.w3.org/2000/svg"><rect fill="#e32" height="200" rx="100" width="200"/><path d="m18 112.459v-28.459h12.55c5.349 0 8.1 3.458 8.1 7.245 0 3.536-2.197 5.97-4.852 6.53 3.037.464 5.406 3.42 5.406 6.956 0 4.308-2.79 7.728-8.176 7.728zm14.537-20.132c0-1.758-1.26-2.995-3.286-2.995h-5.253v5.97h5.253c2.025 0 3.286-1.14 3.286-2.975zm.554 11.554c0-1.797-1.26-3.246-3.591-3.246h-5.502v6.492h5.52c2.217 0 3.573-1.198 3.573-3.246zm7.755.328v-12.365h5.387v12.191c0 2.454 1.471 4.231 4.336 4.231 2.828 0 4.318-1.777 4.318-4.231v-12.19h5.367v12.345c0 5.178-3.075 8.81-9.665 8.81s-9.743-3.671-9.743-8.791zm21.185 8.25v-4.057l9.188-11.824h-9.188v-4.734h16.485v3.884l-9.36 11.998h9.532v4.733zm18.414 0v-4.057l9.189-11.824h-9.189v-4.734h16.486v3.884l-9.36 11.998h9.532v4.733zm18.663 0v-28.459h19.523v5.332h-13.524v5.97h10.181v5.333h-10.181v11.824zm17.689-10.317c0-5.97 4.394-10.8 10.545-10.8 6.112 0 10.2 4.617 10.2 11.302v1.275h-15.148c.382 2.512 2.407 4.618 5.865 4.618 1.738 0 4.087-.734 5.405-2.009l2.407 3.593c-2.024 1.874-5.234 2.86-8.386 2.86-6.208 0-10.888-4.232-10.888-10.839zm10.545-6.356c-3.324 0-4.776 2.337-4.986 4.385h10.048c-.172-1.97-1.528-4.386-5.062-4.386zm11.652 6.356c0-5.97 4.394-10.8 10.544-10.8 6.113 0 10.201 4.617 10.201 11.302v1.275h-15.148c.382 2.512 2.407 4.618 5.864 4.618 1.739 0 4.088-.734 5.406-2.009l2.407 3.593c-2.025 1.874-5.234 2.86-8.386 2.86-6.208 0-10.888-4.232-10.888-10.839zm10.544-6.356c-3.323 0-4.775 2.337-4.985 4.385h10.048c-.172-1.97-1.529-4.386-5.063-4.386zm12.169 16.712v-20.693h8.214c6.437 0 11.079 3.903 11.079 10.337 0 6.414-4.623 10.356-11.041 10.356zm14.078-10.356c0-3.207-1.91-5.873-5.654-5.873h-3.324v11.766h3.324c3.572 0 5.654-2.821 5.654-5.893z" fill="#fff"/></svg>